#!OML:ASF F:\VICON\USERDATA\INSTALL\rory3\rory3.ASF
:FULLY-SPECIFIED
:DEGREES
1125
root -0.854764 16.0506 -1.69264 -152.659 -24.0459 184.27
lowerback -12.9327 6.16832 -0.355809
upperback -9.94104 7.09092 0.19701
thorax -3.34254 3.08552 1.11306
lowerneck -6.19261 16.4288 9.95942
upperneck 15.9186 23.8283 -16.3187
head 9.24387 10.4577 -4.15747
rclavicle -4.70871e-014 1.59028e-014
rhumerus -211.736 -190.51 85.6235
rradius 28.2803
rwrist -4.96044
rhand -5.64081 19.1733
rfingers 7.12502
rthumb 20.1776 -9.79874
lclavicle -4.70871e-014 1.59028e-014
lhumerus -29.7214 -15.8998 97.6851
lradius 36.3148
lwrist -3.46982
lhand -4.77816 15.7583
lfingers 7.12502
lthumb 21.0065 44.6407
rfemur -37.5486 8.29478 33.7232
rtibia 41.0697
rfoot -54.1645 -33.7546
rtoes 33.7582
lfemur -74.3506 21.7299 -39.7617
ltibia 55.1022
lfoot -40.098 30.8198
ltoes 21.2219
1126
root -0.89411 16.0449 -1.74859 -152.483 -24.2026 184.251
lowerback -13.1441 6.48944 -0.658069
upperback -10.2355 7.50182 -0.192255
thorax -3.54603 3.27913 0.918125
lowerneck -6.23598 16.1508 10.3418
upperneck 16.3389 23.3808 -15.9125
head 9.32121 10.2887 -4.14885
rclavicle 2.74696e-014 -3.4191e-014
rhumerus -212.237 -189.076 85.9794
rradius 27.5241
rwrist -4.4308
rhand -5.69925 19.1351
rfingers 7.12502
rthumb 20.1214 -9.84294
lclavicle 2.74696e-014 -3.4191e-014
lhumerus -30.0396 -15.1919 96.5895
lradius 35.4859
lwrist -3.11893
lhand -4.99573 16.4578
lfingers 7.12502
lthumb 20.7975 45.3632
rfemur -37.472 8.59618 33.6147
rtibia 41.0353
rfoot -54.7961 -33.7313
rtoes 34.0335
lfemur -73.9628 21.485 -39.6785
ltibia 54.7063
lfoot -40.6634 30.7173
ltoes 21.3194
1127
root -0.941689 16.0441 -1.80076 -152.258 -24.536 184.196
lowerback -13.4424 6.52026 -0.900094
upperback -10.5161 7.51197 -0.424855
thorax -3.69293 3.26921 0.824162
lowerneck -6.0911 16.0879 10.7454
upperneck 16.5108 23.2305 -15.6435
head 9.34448 10.2711 -4.15011
rclavicle 4.61553e-014 9.93923e-016
rhumerus -212.727 -187.728 86.3265
rradius 26.7315
rwrist -3.28827
rhand -5.44812 19.2717
rfingers 7.12502
rthumb 20.3628 -9.68074
lclavicle 4.61553e-014 9.93923e-016
lhumerus -30.185 -13.4555 95.0542
lradius 34.4262
lwrist -3.1837
lhand -5.1895 16.7488
lfingers 7.12502
lthumb 20.6113 45.6745
rfemur -37.4976 8.44706 33.5588
rtibia 41.0436
rfoot -54.9804 -33.9186
rtoes 34.2404
lfemur -73.6018 21.2282 -39.7794
ltibia 54.255
lfoot -41.0125 30.2754
ltoes 22.0432
1128
root -0.991153 16.0448 -1.85125 -151.936 -24.7504 183.864
lowerback -13.6941 6.46538 -1.34869
upperback -10.6689 7.45039 -0.618561
thorax -3.75968 3.24521 0.876417
lowerneck -7.17264 15.9938 10.2456
upperneck 17.3352 23.062 -14.8518
head 9.62945 10.1255 -3.76789
rclavicle -2.47611e-014 4.47266e-014
rhumerus -212.972 -186.973 86.7081
rradius 25.9445
rwrist -2.84682
rhand -5.57252 19.1594
rfingers 7.12502
rthumb 20.2432 -9.80572
lclavicle -2.47611e-014 4.47266e-014
lhumerus -30.2411 -11.9173 93.7274
lradius 33.4974
lwrist -2.89194
lhand -5.80487 17.3622
lfingers 7.12502
lthumb 20.0199 46.3509
rfemur -37.5269 7.89223 33.2991
rtibia 41.0795
rfoot -54.7306 -33.9753
rtoes 34.2974
lfemur -73.0453 20.8353 -39.9627
ltibia 53.7865
lfoot -41.6267 29.7244
ltoes 22.8176
1129
root -1.03574 16.0463 -1.90565 -151.905 -24.9582 183.752
lowerback -13.685 6.45042 -1.67136
upperback -10.7918 7.44445 -0.684985
thorax -3.93451 3.25344 0.972298
lowerneck -7.75261 15.9913 9.7864
upperneck 17.8113 23.0428 -14.3074
head 9.76554 10.0778 -3.4869
rclavicle 4.99881e-014 1.07344e-014
rhumerus -213.383 -187.025 86.7875
rradius 25.0915
rwrist -3.16323
rhand -5.91492 18.932
rfingers 7.12502
rthumb 19.9141 -10.0676
lclavicle 4.99881e-014 1.07344e-014
lhumerus -30.2802 -10.4533 92.5264
lradius 32.5684
lwrist -2.52279
lhand -6.26475 18.4642
lfingers 7.12502
lthumb 19.5778 47.4985
rfemur -37.2849 7.90827 33.1567
rtibia 41.0633
rfoot -55.2176 -33.7146
rtoes 34.3073
lfemur -72.2856 20.491 -39.6703
ltibia 53.3939
lfoot -42.4892 29.2472
ltoes 23.9028
1130
root -1.07691 16.0494 -1.95783 -151.959 -25.213 183.793
lowerback -13.6933 6.35046 -1.92588
upperback -10.8905 7.32086 -0.674908
thorax -4.07089 3.20218 1.10322
lowerneck -7.62878 16.0341 10.0175
upperneck 17.7397 23.0961 -14.4349
head 9.77178 10.1156 -3.55797
rclavicle 2.12389e-014 1.5704e-014
rhumerus -213.852 -187.166 86.6929
rradius 24.2774
rwrist -3.18282
rhand -5.30785 18.6451
rfingers 7.12502
rthumb 20.4976 -10.2929
lclavicle 2.12389e-014 1.5704e-014
lhumerus -30.2143 -8.33127 90.9464
lradius 31.4758
lwrist -2.61441
lhand -6.80205 18.8396
lfingers 7.12502
lthumb 19.0612 47.9256
rfemur -36.9981 8.468 33.049
rtibia 40.9474
rfoot -55.7219 -34.4243
rtoes 34.0328
lfemur -71.7407 20.296 -39.3783
ltibia 53.1623
lfoot -42.7992 29.1906
ltoes 23.8715
1131
root -1.12617 16.0505 -2.00757 -151.878 -25.5663 183.691
lowerback -13.8309 6.22891 -2.17299
upperback -10.9487 7.17185 -0.715597
thorax -4.08486 3.13627 1.19099
lowerneck -7.80795 16.0893 10.0169
upperneck 17.805 23.1619 -14.3527
head 9.82462 10.1406 -3.50378
rclavicle -1.12919e-013 -2.73329e-014
rhumerus -213.99 -186.502 87.0993
rradius 23.4272
rwrist -2.48739
rhand -6.0781 18.4722
rfingers 7.12502
rthumb 19.7573 -10.5437
lclavicle -1.12919e-013 -2.73329e-014
lhumerus -30.0381 -6.04442 89.3438
lradius 30.2966
lwrist -2.76567
lhand -7.1482 18.9552
lfingers 7.12502
lthumb 18.7283 48.0737
rfemur -36.6509 8.53771 32.9463
rtibia 40.7409
rfoot -55.8049 -35.2679
rtoes 33.9941
lfemur -71.3757 20.0599 -39.3628
ltibia 53.094
lfoot -42.7866 28.9822
ltoes 23.8566
1132
root -1.1844 16.0503 -2.06063 -151.925 -26.0488 183.618
lowerback -13.9486 6.16716 -2.18266
upperback -10.9537 7.09205 -0.854091
thorax -4.00709 3.09201 1.05695
lowerneck -7.95239 16.0728 10.0307
upperneck 17.763 23.1071 -14.2402
head 9.81432 10.1255 -3.46705
rclavicle -7.71129e-014 -4.99943e-014
rhumerus -214.005 -185.312 87.7477
rradius 22.4926
rwrist -1.53516
rhand -5.06289 18.0036
rfingers 7.12502
rthumb 20.733 -10.9088
lclavicle -7.71129e-014 -4.99943e-014
lhumerus -29.9601 -4.37948 87.8207
lradius 29.2201
lwrist -2.40115
lhand -7.43817 18.8433
lfingers 7.12502
lthumb 18.4494 47.9884
rfemur -36.0922 8.25801 32.9641
rtibia 40.5173
rfoot -55.9347 -35.2125
rtoes 34.2704
lfemur -70.9157 19.8522 -39.2678
ltibia 53.1419
lfoot -42.8716 28.514
ltoes 24.3377
1133
root -1.23115 16.0527 -2.1094 -152.035 -26.4569 183.504
lowerback -13.8759 6.09034 -2.32987
upperback -11.0393 6.99442 -1.05051
thorax -4.12888 3.04406 0.912411
lowerneck -7.77158 16.0011 10.5365
upperneck 17.7113 22.9607 -14.3249
head 9.81829 10.099 -3.59912
rclavicle -8.05254e-014 -3.65208e-014
rhumerus -214.248 -184.099 88.1558
rradius 21.3362
rwrist -0.425798
rhand -4.4717 17.7963
rfingers 7.12502
rthumb 21.3009 -11.0531
lclavicle -8.05254e-014 -3.65208e-014
lhumerus -30.007 -2.35794 85.8567
lradius 27.8433
lwrist -2.85776
lhand -7.50791 17.9388
lfingers 7.12502
lthumb 18.3823 47.0902
rfemur -35.5636 8.74347 32.7505
rtibia 40.3834
rfoot -56.7815 -35.1555
rtoes 34.4544
lfemur -70.4556 19.7961 -39.2233
ltibia 53.1873
lfoot -42.7208 28.1242
ltoes 24.618
